<svg width="16" height="14" viewBox="0 0 16 14" fill="none" xmlns="http://www.w3.org/2000/svg">
<path d="M8 6.21219C7.27533 4.82486 5.30267 2.23986 3.468 0.965404C1.71067 -0.255892 1.04067 -0.0445769 0.601333 0.151644C0.0926667 0.376741 0 1.14587 0 1.59738C0 2.0502 0.252 5.30524 0.416 5.84928C0.959333 7.6448 2.89133 8.25118 4.67133 8.05693C4.762 8.0438 4.85467 8.03133 4.948 8.02018C4.856 8.03461 4.764 8.04643 4.67133 8.05693C2.06333 8.43756 -0.253333 9.37272 2.78467 12.7019C6.12667 16.1079 7.36467 11.9715 8 9.87476C8.63533 11.9715 9.36667 15.9589 13.1553 12.7019C16 9.87476 13.9367 8.43756 11.3287 8.05693C11.2362 8.04685 11.1439 8.0346 11.052 8.02018C11.1453 8.03133 11.238 8.0438 11.3287 8.05693C13.1087 8.25184 15.0407 7.6448 15.584 5.84928C15.748 5.30589 16 2.04954 16 1.59804C16 1.14522 15.9073 0.376741 15.3987 0.150332C14.9593 -0.0452332 14.2893 -0.256548 12.532 0.964092C10.6973 2.24051 8.72467 4.82551 8 6.21219Z" fill="black"/>
</svg>
