<svg width="16" height="14" viewBox="0 0 16 14" fill="none" xmlns="http://www.w3.org/2000/svg">
<path d="M1.15625 0.636719C1.45775 0.46084 1.81649 0.441248 2.14844 0.655273L2.28906 0.761719L3.30762 1.65332L7.6709 5.46973L8 5.75781L8.3291 5.46973L12.6924 1.65234L13.7109 0.761719C14.0793 0.439464 14.499 0.436662 14.8438 0.637695C15.1998 0.845528 15.4999 1.29228 15.5 1.91211V12.7275C15.4998 13.229 15.1662 13.499 14.9092 13.499H12.8633V5.68848L12.0342 6.41406L8 9.94336L3.96582 6.41406L3.13672 5.68848V13.5H1.09082L0.991211 13.4883C0.95766 13.4805 0.923895 13.4692 0.890625 13.4531C0.823969 13.4209 0.758309 13.3707 0.699219 13.3018C0.639989 13.2326 0.589037 13.1465 0.553711 13.0469C0.518461 12.9474 0.499954 12.8386 0.5 12.7275V1.91211C0.500088 1.29192 0.800135 0.844489 1.15625 0.636719Z" stroke="#ff6b3c"/>
</svg>
