<svg width="16" height="14" viewBox="0 0 16 14" fill="none" xmlns="http://www.w3.org/2000/svg">
<path d="M8 0C3.58 0 0 3.21383 0 7.17773C0 10.3497 2.292 13.0395 5.47 13.9876C5.87 14.0552 6.01667 13.8333 6.01667 13.6425C6.01667 13.472 6.01 13.0204 6.00667 12.4223C3.78133 12.8553 3.312 11.4592 3.312 11.4592C2.948 10.6308 2.422 10.4095 2.422 10.4095C1.69733 9.96448 2.478 9.97345 2.478 9.97345C3.28133 10.0237 3.70333 10.7128 3.70333 10.7128C4.41667 11.8104 5.576 11.4933 6.03333 11.3097C6.10533 10.8455 6.31133 10.5291 6.54 10.3497C4.76333 10.1702 2.896 9.55296 2.896 6.80269C2.896 6.01912 3.206 5.37911 3.71933 4.87667C3.62933 4.69543 3.35933 3.96569 3.78933 2.97696C3.78933 2.97696 4.45933 2.78436 5.98933 3.71268C6.62933 3.55298 7.30933 3.47402 7.98933 3.47043C8.66933 3.47402 9.34933 3.55298 9.98933 3.71268C11.5093 2.78436 12.1793 2.97696 12.1793 2.97696C12.6093 3.96569 12.3393 4.69543 12.2593 4.87667C12.7693 5.37911 13.0793 6.01912 13.0793 6.80269C13.0793 9.56014 11.2093 10.1673 9.42933 10.3437C9.70933 10.559 9.96933 10.9993 9.96933 11.6716C9.96933 12.6322 9.95933 13.4038 9.95933 13.6371C9.95933 13.8255 10.0993 14.0498 10.5093 13.978C13.71 13.0365 16 10.3449 16 7.17773C16 3.21383 12.418 0 8 0Z" fill="black"/>
</svg>
