<svg width="16" height="14" viewBox="0 0 16 14" fill="none" xmlns="http://www.w3.org/2000/svg">
<path d="M3.35781 1.55624C3.35758 1.96877 3.18049 2.36433 2.86548 2.65589C2.55046 2.94745 2.12334 3.11113 1.67807 3.11093C1.2328 3.11072 0.80585 2.94664 0.491147 2.65479C0.176456 2.36294 -0.000223641 1.96722 2.12458e-07 1.55468C0.000224066 1.14215 0.177328 0.746589 0.492337 0.455026C0.807347 0.163474 1.23447 -0.000207199 1.67975 1.96848e-07C2.12502 0.00019607 2.55197 0.16428 2.86666 0.456132C3.18136 0.747983 3.35803 1.14371 3.35781 1.55624ZM3.40817 4.26275H0.0503672V14H3.40817V4.26275ZM8.71356 4.26275H5.37249V14H8.67998V8.89024C8.67998 6.04376 12.6841 5.77933 12.6841 8.89024V14H16V7.83252C16 3.03393 10.0734 3.21281 8.67998 5.56934L8.71356 4.26275Z" fill="#0A0D14"/>
</svg>
