<svg xmlns="http://www.w3.org/2000/svg" width="20" height="19" viewBox="0 0 20 19" fill="none">
  <title>Linkedin</title>
  <path d="M6.51821 5.11337C6.51802 5.47141 6.36771 5.81472 6.10034 6.06777C5.83296 6.32081 5.47043 6.46287 5.0925 6.4627C4.71457 6.46252 4.35219 6.32011 4.08508 6.06681C3.81798 5.81351 3.66802 5.47006 3.66821 5.11202C3.6684 4.75398 3.81872 4.41067 4.08609 4.15762C4.35346 3.90458 4.71599 3.76252 5.09393 3.7627C5.47186 3.76287 5.83424 3.90528 6.10134 4.15858C6.36845 4.41188 6.5184 4.75533 6.51821 5.11337ZM6.56096 7.46237H3.71096V15.9134H6.56096V7.46237ZM11.064 7.46237H8.22821V15.9134H11.0355V11.4786C11.0355 9.00812 14.4341 8.77862 14.4341 11.4786V15.9134H17.2485V10.5606C17.2485 6.39587 12.2182 6.55112 11.0355 8.59637L11.064 7.46237Z" fill="#0A0D14"/>
</svg>
