<svg width="231" height="231" viewBox="0 0 231 231" fill="none" xmlns="http://www.w3.org/2000/svg">
<path d="M92.1505 203.574C93.565 203.959 94.69 204.634 95.5255 205.599C96.3556 206.563 96.8693 207.774 97.0666 209.233C97.2585 210.69 97.1046 212.34 96.605 214.182C96.1124 216.021 95.4209 217.515 94.5305 218.665C93.6346 219.813 92.5886 220.588 91.3924 220.991C90.1892 221.398 88.8824 221.413 87.4719 221.035C86.0615 220.657 84.9398 219.992 84.1068 219.039C83.2683 218.085 82.7482 216.887 82.5464 215.445C82.3432 214.008 82.4906 212.371 82.9888 210.534C83.4844 208.684 84.1823 207.177 85.0826 206.013C85.9774 204.847 87.0251 204.054 88.2257 203.634C89.4263 203.215 90.7346 203.195 92.1505 203.574ZM91.3586 206.53C90.3927 206.271 89.4915 206.55 88.6549 207.367C87.8184 208.184 87.1426 209.565 86.6275 211.509C86.2848 212.788 86.1312 213.888 86.1667 214.809C86.1968 215.729 86.3931 216.467 86.7559 217.023C87.1132 217.577 87.6129 217.94 88.255 218.113C89.2155 218.37 90.1125 218.096 90.9461 217.29C91.7797 216.483 92.4559 215.124 92.9746 213.21C93.3216 211.914 93.4824 210.799 93.4568 209.862C93.4242 208.93 93.2273 208.183 92.866 207.622C92.5032 207.066 92.0008 206.702 91.3586 206.53Z" fill="black"/>
<path d="M70.199 214.636L77.0125 198.566L80.41 200.007L74.9639 212.852L75.058 212.892L79.7162 212.145L78.4387 215.158L73.3925 215.99L70.199 214.636Z" fill="black"/>
<path d="M56.88 207.39L65.8576 192.422L69.0224 194.32L61.8465 206.284L61.9342 206.337L66.6509 206.244L64.9676 209.051L59.8548 209.175L56.88 207.39Z" fill="black"/>
<path d="M58.4326 186.532C59.5694 187.458 60.3239 188.531 60.6962 189.752C61.064 190.97 61.0423 192.285 60.631 193.698C60.2152 195.108 59.4054 196.554 58.2013 198.035C57.0053 199.516 55.7672 200.601 54.487 201.291C53.2024 201.977 51.9317 202.262 50.6748 202.145C49.41 202.029 48.2096 201.512 47.0737 200.594C45.9378 199.677 45.1823 198.614 44.8074 197.405C44.428 196.193 44.4386 194.887 44.8392 193.487C45.2362 192.091 46.0349 190.655 47.2354 189.177C48.4386 187.688 49.6878 186.594 50.9831 185.894C52.274 185.191 53.5532 184.892 54.8208 184.995C56.0883 185.099 57.2923 185.611 58.4326 186.532ZM56.51 188.912C55.7321 188.284 54.7951 188.174 53.6991 188.581C52.6031 188.989 51.4253 189.976 50.1658 191.545C49.334 192.574 48.7474 193.518 48.4062 194.374C48.0605 195.227 47.9407 195.981 48.0467 196.636C48.1484 197.288 48.4578 197.823 48.9749 198.241C49.7484 198.866 50.6796 198.979 51.7685 198.58C52.8574 198.181 54.0271 197.213 55.2775 195.674C56.1201 194.631 56.7196 193.676 57.076 192.81C57.4243 191.944 57.5473 191.182 57.4448 190.522C57.3388 189.867 57.0272 189.33 56.51 188.912Z" fill="black"/>
<path d="M33.8811 187.739L46.6272 175.814L49.1484 178.509L38.9602 188.041L39.0301 188.116L43.5906 189.323L41.2007 191.559L36.2509 190.272L33.8811 187.739Z" fill="black"/>
<path d="M24.646 175.714L38.9236 165.673L41.0464 168.692L29.6341 176.718L29.6929 176.801L34.0419 178.629L31.3648 180.512L26.6414 178.551L24.646 175.714Z" fill="black"/>
<path d="M34.5258 157.278C35.1894 158.586 35.4437 159.873 35.2887 161.14C35.1311 162.402 34.5777 163.595 33.6284 164.72C32.6766 165.84 31.3499 166.833 29.6484 167.699C27.9546 168.567 26.3827 169.057 24.9328 169.168C23.4804 169.274 22.2035 169.019 21.1021 168.402C19.993 167.783 19.1054 166.824 18.4393 165.524C17.7732 164.225 17.5139 162.947 17.6614 161.69C17.8063 160.428 18.3458 159.239 19.2799 158.121C20.2089 157.007 21.5217 156.018 23.2181 155.154C24.9221 154.281 26.5078 153.787 27.9755 153.674C29.4405 153.555 30.7313 153.8 31.8479 154.408C32.9644 155.017 33.8571 155.974 34.5258 157.278ZM31.803 158.674C31.3468 157.784 30.5352 157.303 29.3681 157.231C28.201 157.159 26.7238 157.584 24.9365 158.507C23.7584 159.111 22.8397 159.735 22.1804 160.379C21.5185 161.019 21.1031 161.659 20.9342 162.301C20.7627 162.938 20.8285 163.553 21.1318 164.144C21.5854 165.029 22.3906 165.51 23.5476 165.587C24.7046 165.665 26.1667 165.254 27.9339 164.354C29.1272 163.743 30.0624 163.113 30.7394 162.466C31.4088 161.816 31.8305 161.169 32.0045 160.525C32.1734 159.883 32.1062 159.266 31.803 158.674Z" fill="black"/>
<path d="M11.5951 148.423L28.0825 142.693L29.2938 146.179L16.1152 150.759L16.1488 150.856L19.8277 153.809L16.7363 154.883L12.7337 151.699L11.5951 148.423Z" fill="black"/>
<path d="M24.54 120.842C24.6164 122.306 24.3267 123.586 23.6711 124.681C23.0152 125.77 22.0252 126.637 20.7012 127.28C19.3769 127.918 17.7615 128.287 15.8551 128.388C13.9546 128.495 12.3193 128.305 10.949 127.818C9.57837 127.326 8.51475 126.575 7.75814 125.565C6.99554 124.549 6.57336 123.312 6.49161 121.854C6.40986 120.396 6.69128 119.123 7.33588 118.034C7.98015 116.939 8.95579 116.071 10.2628 115.428C11.5641 114.786 13.1651 114.415 15.0659 114.314C16.9777 114.207 18.6274 114.399 20.015 114.89C21.4023 115.376 22.4828 116.123 23.2564 117.133C24.03 118.142 24.4579 119.379 24.54 120.842ZM21.4851 121.013C21.4291 120.015 20.8824 119.246 19.8449 118.707C18.8074 118.167 17.2847 117.957 15.2768 118.075C13.955 118.149 12.8621 118.347 11.998 118.669C11.1337 118.985 10.4941 119.402 10.0793 119.92C9.66417 120.433 9.47522 121.021 9.51243 121.685C9.5681 122.677 10.109 123.444 11.1352 123.984C12.1613 124.524 13.6645 124.741 15.6446 124.636C16.9835 124.561 18.0935 124.365 18.9749 124.048C19.8503 123.726 20.4982 123.305 20.9187 122.787C21.3335 122.268 21.5223 121.677 21.4851 121.013Z" fill="black"/>
<path d="M7.17244 103.447L24.5666 104.897L24.2599 108.575L10.3565 107.415L10.348 107.517L12.5128 111.709L9.25135 111.437L6.88415 106.903L7.17244 103.447Z" fill="black"/>
<path d="M9.89324 88.5304L26.9178 92.3808L26.1037 95.9803L12.4957 92.9025L12.4731 93.0023L14.0353 97.4537L10.8432 96.7318L9.12804 91.9137L9.89324 88.5304Z" fill="black"/>
<path d="M14.6577 74.1362L30.9832 80.3119L29.6775 83.7635L16.6282 78.8272L16.592 78.9228L17.5214 83.548L14.4604 82.39L13.4304 77.3805L14.6577 74.1362Z" fill="black"/>
<path d="M35.4598 71.9588C34.7509 73.2419 33.8288 74.1751 32.6933 74.7583C31.5606 75.3366 30.2623 75.5488 28.7983 75.3952C27.337 75.2365 25.7705 74.6963 24.0986 73.7746C22.429 72.8606 21.1412 71.835 20.2351 70.6977C19.3317 69.5554 18.8259 68.3554 18.7176 67.0978C18.6071 65.8325 18.9024 64.5594 19.6036 63.2786C20.3048 61.9977 21.2167 61.0654 22.3395 60.4817C23.4649 59.893 24.7522 59.6714 26.2012 59.8169C27.6453 59.9597 29.2007 60.4906 30.8676 61.4096C32.5472 62.329 33.8461 63.364 34.7645 64.5144C35.6855 65.6599 36.2076 66.8655 36.3309 68.1313C36.4541 69.3971 36.1638 70.6729 35.4598 71.9588ZM32.776 70.4896C33.2562 69.6124 33.1985 68.6707 32.6028 67.6645C32.0071 66.6583 30.8258 65.6747 29.0587 64.7139C27.8975 64.0782 26.8651 63.6685 25.9617 63.4848C25.0609 63.2962 24.2975 63.3122 23.6714 63.533C23.048 63.7488 22.5767 64.1483 22.2575 64.7314C21.78 65.6036 21.8342 66.5401 22.4199 67.5408C23.0056 68.5416 24.1668 69.5206 25.9034 70.4778C27.0796 71.1216 28.1255 71.542 29.0412 71.7388C29.9547 71.928 30.7269 71.9135 31.358 71.6954C31.9841 71.4746 32.4568 71.0727 32.776 70.4896Z" fill="black"/>
<path d="M29.9108 48.0121L43.9101 58.4371L41.7059 61.3969L30.5161 53.064L30.455 53.146L30.0773 57.8485L27.4524 55.8938L27.839 50.7942L29.9108 48.0121Z" fill="black"/>
<path d="M50.5101 51.6362C49.4758 52.675 48.3327 53.3188 47.0807 53.5675C45.8327 53.8121 44.526 53.6594 43.1606 53.1092C41.7992 52.555 40.4415 51.6051 39.0874 50.2593C37.7333 48.9216 36.7769 47.5815 36.2183 46.239C35.6637 44.8924 35.5072 43.5997 35.7488 42.3607C35.9903 41.1138 36.6241 39.9709 37.6504 38.9321C38.6766 37.8933 39.8097 37.2475 41.0496 36.9949C42.2936 36.7382 43.5921 36.879 44.9454 37.4172C46.2946 37.9513 47.6442 38.8893 48.9943 40.231C50.3565 41.5767 51.3209 42.9288 51.8876 44.2874C52.4584 45.6419 52.629 46.9446 52.3996 48.1955C52.1702 49.4464 51.5403 50.5933 50.5101 51.6362ZM48.3335 49.4859C49.0363 48.7745 49.2396 47.8532 48.9434 46.722C48.6472 45.5908 47.7817 44.3204 46.3469 42.9109C45.4051 41.9805 44.5251 41.3029 43.7069 40.8779C42.8927 40.449 42.1543 40.2546 41.4916 40.2948C40.8329 40.3309 40.2699 40.5855 39.8028 41.0584C39.104 41.7658 38.8986 42.681 39.1867 43.8042C39.4748 44.9275 40.3221 46.1879 41.7288 47.5855C42.6827 48.5279 43.5729 49.2196 44.3992 49.6605C45.2254 50.0934 45.9719 50.2917 46.6387 50.2555C47.3013 50.2153 47.8663 49.9588 48.3335 49.4859Z" fill="black"/>
<path d="M51.7567 27.0866L62.3514 40.9579L59.4187 43.1979L50.9501 32.1103L50.8689 32.1724L49.2132 36.5899L47.2267 33.989L49.0001 29.192L51.7567 27.0866Z" fill="black"/>
<path d="M82.0014 30.7645C80.6346 31.2945 79.3286 31.4192 78.0834 31.1387C76.8434 30.8561 75.711 30.1864 74.6861 29.1297C73.6666 28.071 72.8109 26.652 72.119 24.8726C71.4239 23.1007 71.0934 21.4878 71.1274 20.0341C71.1666 18.5783 71.5479 17.3332 72.2713 16.2988C72.9978 15.257 74.0408 14.4694 75.4002 13.9362C76.7595 13.4029 78.0571 13.2723 79.293 13.5444C80.5341 13.8143 81.6639 14.4697 82.6826 15.5105C83.6991 16.546 84.5523 17.9508 85.2421 19.7249C85.9413 21.5074 86.2744 23.1345 86.2413 24.6061C86.2136 26.0757 85.8412 27.3357 85.1241 28.386C84.4069 29.4363 83.3661 30.2291 82.0014 30.7645ZM80.8841 27.9161C81.815 27.5509 82.3745 26.7913 82.5627 25.6372C82.7508 24.4831 82.475 22.9709 81.7352 21.1005C81.2517 19.8681 80.7223 18.8917 80.1468 18.1715C79.5766 17.4491 78.9804 16.9719 78.3584 16.7399C77.7417 16.5057 77.1239 16.51 76.505 16.7528C75.5794 17.1159 75.0204 17.8692 74.8281 19.0127C74.6358 20.1562 74.8991 21.652 75.618 23.5001C76.1076 24.7484 76.6407 25.7417 77.2171 26.4799C77.7968 27.2107 78.3986 27.6948 79.0227 27.9322C79.6448 28.1642 80.2652 28.1589 80.8841 27.9161Z" fill="black"/>
<path d="M93.0987 8.83076L97.1561 25.8072L93.5669 26.665L90.3237 13.0955L90.2242 13.1193L86.919 16.4855L86.1583 13.3024L89.725 9.6371L93.0987 8.83076Z" fill="black"/>
<path d="M108.118 6.75419L109.78 24.1294L106.107 24.4809L104.778 10.5926L104.676 10.6023L100.936 13.4773L100.624 10.2194L104.665 7.08455L108.118 6.75419Z" fill="black"/>
<path d="M119.252 24.4605C117.787 24.3906 116.543 23.9748 115.519 23.2133C114.5 22.452 113.736 21.3806 113.228 19.999C112.726 18.6177 112.519 16.9736 112.609 15.0666C112.692 13.165 113.044 11.5567 113.665 10.2418C114.291 8.92704 115.145 7.94361 116.226 7.29148C117.312 6.63393 118.585 6.33714 120.044 6.40113C121.503 6.46512 122.742 6.87208 123.761 7.62202C124.786 8.3722 125.553 9.42955 126.062 10.7941C126.571 12.1529 126.781 13.783 126.692 15.6843C126.608 17.5973 126.252 19.2196 125.625 20.5514C125.004 21.8834 124.152 22.8839 123.071 23.5531C121.989 24.2223 120.716 24.5247 119.252 24.4605ZM119.386 21.4038C120.385 21.4476 121.204 20.9802 121.844 20.0016C122.484 19.0231 122.846 17.5289 122.928 15.5192C122.986 14.1967 122.898 13.0895 122.664 12.1977C122.436 11.3061 122.085 10.6282 121.611 10.1637C121.142 9.69958 120.575 9.45293 119.911 9.42379C118.918 9.38022 118.101 9.84204 117.462 10.8093C116.822 11.7765 116.456 13.2505 116.364 15.2313C116.305 16.5709 116.389 17.695 116.617 18.6036C116.85 19.5067 117.204 20.1933 117.678 20.6634C118.152 21.1278 118.722 21.3746 119.386 21.4038Z" fill="black"/>
<path d="M138.292 8.91354L135.115 26.0765L131.486 25.4047L134.026 11.6861L133.925 11.6675L129.539 13.4037L130.134 10.1856L134.881 8.2821L138.292 8.91354Z" fill="black"/>
<path d="M152.862 13.1077L147.334 29.6636L143.834 28.4948L148.253 15.2614L148.156 15.229L143.571 16.3396L144.607 13.2354L149.572 12.009L152.862 13.1077Z" fill="black"/>
<path d="M155.857 33.808C154.547 33.1502 153.578 32.2654 152.951 31.1538C152.328 30.0448 152.065 28.7558 152.161 27.2869C152.262 25.8205 152.74 24.2339 153.595 22.527C154.443 20.8228 155.417 19.4955 156.518 18.5454C157.624 17.5977 158.803 17.0451 160.055 16.8874C161.315 16.7271 162.599 16.9721 163.906 17.6224C165.214 18.2726 166.181 19.1471 166.809 20.246C167.441 21.3475 167.713 22.625 167.625 24.0786C167.539 25.5272 167.07 27.1023 166.217 28.8041C165.365 30.5186 164.382 31.8572 163.268 32.8201C162.16 33.7856 160.976 34.3547 159.716 34.5277C158.456 34.7006 157.169 34.4608 155.857 33.808ZM157.219 31.0684C158.115 31.5137 159.053 31.4189 160.035 30.7841C161.017 30.1493 161.954 28.9302 162.844 27.1267C163.434 25.9413 163.802 24.8936 163.95 23.9836C164.103 23.0762 164.057 22.314 163.812 21.697C163.572 21.0826 163.154 20.6274 162.559 20.3314C161.669 19.8886 160.735 19.9796 159.758 20.6042C158.781 21.2289 157.849 22.4277 156.961 24.2007C156.364 25.4013 155.985 26.463 155.824 27.3857C155.671 28.3059 155.716 29.077 155.959 29.699C156.204 30.3159 156.624 30.7724 157.219 31.0684Z" fill="black"/>
<path d="M179.567 27.3206L169.701 41.7194L166.657 39.6335L174.542 28.1243L174.458 28.0665L169.744 27.8742L171.594 25.1744L176.705 25.36L179.567 27.3206Z" fill="black"/>
<path d="M185.524 57.2C184.594 56.0673 184.067 54.8657 183.944 53.5951C183.825 52.3289 184.108 51.044 184.791 49.7403C185.478 48.4409 186.559 47.1846 188.033 45.9714C189.499 44.7574 190.928 43.9394 192.319 43.5174C193.714 43.0998 195.016 43.0729 196.225 43.4368C197.442 43.8014 198.516 44.546 199.447 45.6707C200.378 46.7954 200.908 47.9872 201.036 49.2461C201.167 50.5094 200.897 51.7875 200.227 53.0804C199.561 54.3696 198.493 55.619 197.024 56.8286C195.549 58.0499 194.107 58.8747 192.699 59.3032C191.294 59.7361 189.981 59.776 188.759 59.423C187.538 59.0701 186.459 58.329 185.524 57.2ZM187.881 55.2485C188.519 56.0188 189.415 56.3129 190.57 56.131C191.725 55.949 193.075 55.2145 194.621 53.9272C195.641 53.0829 196.403 52.2748 196.907 51.5031C197.415 50.7357 197.682 50.0203 197.708 49.3569C197.738 48.6979 197.541 48.1124 197.117 47.6004C196.482 46.8346 195.592 46.539 194.446 46.7137C193.3 46.8884 191.961 47.6059 190.43 48.8662C189.397 49.7214 188.62 50.5382 188.099 51.3164C187.586 52.0954 187.314 52.8184 187.284 53.4855C187.258 54.1488 187.457 54.7365 187.881 55.2485Z" fill="black"/>
<path d="M209.827 60.8875L194.969 70.0468L193.032 66.9053L204.909 59.5842L204.855 59.4971L200.625 57.4094L203.411 55.692L208.007 57.9347L209.827 60.8875Z" fill="black"/>
<path d="M216.493 74.5058L200.508 81.5145L199.026 78.1348L211.803 72.5326L211.762 72.4389L207.862 69.7843L210.86 68.4702L215.1 71.329L216.493 74.5058Z" fill="black"/>
<path d="M203.153 90.6149C202.762 89.2022 202.768 87.8902 203.171 86.6791C203.576 85.4735 204.355 84.4135 205.509 83.4991C206.664 82.5901 208.161 81.8802 210 81.3691C211.833 80.8541 213.47 80.686 214.914 80.8647C216.358 81.0489 217.559 81.5524 218.516 82.3753C219.481 83.202 220.16 84.3183 220.555 85.7241C220.95 87.1298 220.951 88.434 220.557 89.6366C220.165 90.8446 219.4 91.9035 218.263 92.8133C217.131 93.7215 215.648 94.4304 213.814 94.9399C211.971 95.458 210.319 95.6272 208.858 95.4477C207.398 95.2735 206.182 94.7774 205.208 93.9591C204.234 93.1409 203.549 92.0262 203.153 90.6149ZM206.098 89.7871C206.369 90.7498 207.069 91.3823 208.199 91.6845C209.328 91.9868 210.86 91.863 212.795 91.3134C214.07 90.9552 215.094 90.5257 215.868 90.0249C216.643 89.5295 217.178 88.9839 217.471 88.3881C217.765 87.7978 217.822 87.1827 217.643 86.5427C217.373 85.5854 216.68 84.9542 215.561 84.6489C214.442 84.3435 212.928 84.4564 211.017 84.9874C209.726 85.3502 208.685 85.7816 207.893 86.2816C207.108 86.7855 206.566 87.3361 206.268 87.9335C205.975 88.5292 205.918 89.1471 206.098 89.7871Z" fill="black"/>
<path d="M223.871 103.843L206.575 106.188L206.079 102.532L219.904 100.657L219.89 100.556L216.87 96.9315L220.113 96.4918L223.405 100.406L223.871 103.843Z" fill="black"/>
<path d="M206.617 115.665C206.629 114.199 206.995 112.94 207.716 111.886C208.436 110.838 209.477 110.033 210.837 109.471C212.198 108.915 213.833 108.644 215.742 108.658C217.645 108.666 219.266 108.955 220.604 109.523C221.943 110.097 222.959 110.912 223.653 111.966C224.353 113.026 224.7 114.286 224.693 115.746C224.687 117.206 224.329 118.46 223.619 119.508C222.91 120.562 221.884 121.37 220.54 121.932C219.203 122.494 217.582 122.768 215.679 122.754C213.764 122.746 212.129 122.454 210.774 121.88C209.418 121.311 208.385 120.5 207.674 119.446C206.962 118.391 206.61 117.131 206.617 115.665ZM209.676 115.679C209.672 116.679 210.171 117.48 211.174 118.081C212.177 118.682 213.684 118.984 215.696 118.987C217.019 118.993 218.122 118.862 219.004 118.593C219.886 118.33 220.55 117.952 220.995 117.46C221.44 116.973 221.665 116.397 221.668 115.733C221.672 114.738 221.178 113.941 220.187 113.34C219.195 112.739 217.708 112.431 215.725 112.416C214.384 112.41 213.264 112.539 212.365 112.802C211.472 113.071 210.8 113.451 210.349 113.943C209.903 114.436 209.679 115.014 209.676 115.679Z" fill="black"/>
<path d="M205.712 128.308C205.928 126.858 206.465 125.661 207.325 124.718C208.184 123.78 209.326 123.127 210.752 122.759C212.176 122.397 213.833 122.356 215.721 122.635C217.605 122.907 219.17 123.418 220.417 124.166C221.663 124.921 222.556 125.868 223.097 127.009C223.643 128.155 223.812 129.451 223.602 130.897C223.393 132.342 222.865 133.534 222.017 134.473C221.168 135.418 220.04 136.076 218.631 136.446C217.229 136.818 215.586 136.864 213.703 136.586C211.808 136.312 210.229 135.796 208.966 135.039C207.703 134.288 206.792 133.341 206.234 132.199C205.676 131.056 205.502 129.759 205.712 128.308ZM208.74 128.746C208.597 129.736 208.98 130.598 209.89 131.332C210.8 132.067 212.251 132.575 214.242 132.858C215.552 133.047 216.663 133.07 217.574 132.926C218.483 132.788 219.193 132.506 219.702 132.08C220.211 131.66 220.513 131.121 220.608 130.463C220.75 129.479 220.372 128.621 219.474 127.888C218.575 127.155 217.145 126.644 215.183 126.354C213.856 126.162 212.729 126.134 211.802 126.27C210.88 126.412 210.162 126.696 209.647 127.121C209.138 127.546 208.835 128.088 208.74 128.746Z" fill="black"/>
<path d="M219.284 148.803L202.523 143.931L203.553 140.387L216.95 144.282L216.979 144.184L215.688 139.646L218.831 140.559L220.252 145.472L219.284 148.803Z" fill="black"/>
<path d="M192.762 163.799C193.547 162.561 194.524 161.686 195.693 161.172C196.859 160.663 198.167 160.53 199.619 160.772C201.068 161.019 202.599 161.652 204.213 162.673C205.824 163.687 207.047 164.788 207.883 165.978C208.716 167.173 209.148 168.401 209.18 169.663C209.214 170.933 208.842 172.186 208.065 173.422C207.288 174.658 206.321 175.534 205.165 176.048C204.006 176.568 202.708 176.711 201.27 176.479C199.837 176.249 198.317 175.625 196.709 174.607C195.088 173.588 193.854 172.476 193.006 171.272C192.156 170.073 191.708 168.838 191.662 167.567C191.615 166.296 191.982 165.04 192.762 163.799ZM195.352 165.428C194.82 166.275 194.821 167.218 195.355 168.258C195.888 169.299 197.008 170.352 198.714 171.418C199.835 172.123 200.84 172.594 201.731 172.832C202.619 173.075 203.382 173.105 204.02 172.922C204.655 172.744 205.15 172.374 205.504 171.811C206.033 170.97 206.036 170.032 205.511 168.997C204.987 167.963 203.887 166.916 202.212 165.855C201.077 165.141 200.058 164.659 199.156 164.407C198.256 164.163 197.484 164.131 196.841 164.31C196.202 164.493 195.706 164.865 195.352 165.428Z" fill="black"/>
<path d="M196.854 188.038L183.51 176.786L185.889 173.964L196.555 182.958L196.621 182.88L197.282 178.209L199.784 180.319L199.09 185.386L196.854 188.038Z" fill="black"/>
<path d="M186.001 198.625L174.348 185.63L177.095 183.167L186.409 193.554L186.486 193.485L187.789 188.951L189.974 191.388L188.583 196.31L186.001 198.625Z" fill="black"/>
<path d="M166.529 190.987C167.749 190.174 168.997 189.77 170.274 189.774C171.546 189.782 172.796 190.191 174.025 191.001C175.249 191.814 176.392 193.015 177.452 194.602C178.514 196.182 179.185 197.685 179.467 199.112C179.743 200.542 179.64 201.84 179.157 203.006C178.673 204.181 177.825 205.175 176.613 205.99C175.402 206.804 174.163 207.212 172.897 207.214C171.627 207.219 170.383 206.823 169.163 206.027C167.947 205.236 166.81 204.049 165.753 202.466C164.685 200.877 164.007 199.36 163.721 197.916C163.431 196.476 163.522 195.165 163.995 193.984C164.468 192.804 165.313 191.805 166.529 190.987ZM168.236 193.526C167.406 194.084 167.024 194.947 167.09 196.114C167.156 197.282 167.752 198.698 168.879 200.365C169.618 201.463 170.346 202.302 171.063 202.881C171.776 203.463 172.461 203.8 173.119 203.892C173.772 203.987 174.374 203.849 174.926 203.478C175.751 202.924 176.134 202.067 176.074 200.909C176.015 199.751 175.434 198.348 174.333 196.699C173.585 195.586 172.849 194.732 172.127 194.136C171.403 193.547 170.711 193.205 170.05 193.108C169.393 193.016 168.788 193.155 168.236 193.526Z" fill="black"/>
<path d="M160.438 214.801L152.805 199.104L156.124 197.49L162.225 210.037L162.317 209.993L164.816 205.991L166.247 208.935L163.557 213.285L160.438 214.801Z" fill="black"/>
<path d="M146.223 220.077L140.842 203.472L144.353 202.334L148.654 215.607L148.751 215.575L151.781 211.959L152.79 215.073L149.522 219.007L146.223 220.077Z" fill="black"/>
<path d="M131.413 223.328L128.389 206.138L132.024 205.498L134.441 219.239L134.542 219.221L138.044 216.061L138.611 219.284L134.829 222.727L131.413 223.328Z" fill="black"/>
<path d="M118.921 206.553C120.386 206.507 121.66 206.824 122.741 207.502C123.816 208.181 124.662 209.189 125.277 210.526C125.886 211.864 126.222 213.487 126.283 215.395C126.349 217.297 126.125 218.928 125.609 220.288C125.088 221.648 124.315 222.695 123.289 223.43C122.257 224.171 121.011 224.567 119.552 224.618C118.093 224.669 116.826 224.361 115.751 223.694C114.67 223.026 113.822 222.033 113.207 220.712C112.593 219.398 112.255 217.789 112.195 215.887C112.128 213.973 112.355 212.328 112.875 210.951C113.39 209.574 114.16 208.51 115.185 207.758C116.211 207.005 117.456 206.604 118.921 206.553ZM119.028 209.61C118.029 209.645 117.248 210.176 116.687 211.202C116.126 212.227 115.884 213.745 115.959 215.755C116.006 217.078 116.18 218.175 116.484 219.046C116.781 219.917 117.185 220.565 117.694 220.991C118.198 221.416 118.782 221.618 119.447 221.595C120.44 221.56 121.218 221.035 121.779 220.021C122.341 219.006 122.59 217.508 122.526 215.526C122.48 214.186 122.307 213.072 122.009 212.184C121.705 211.302 121.299 210.645 120.789 210.214C120.279 209.788 119.692 209.587 119.028 209.61Z" fill="black"/>
</svg>
