<svg width="275" height="264" viewBox="0 0 275 264" fill="none" xmlns="http://www.w3.org/2000/svg">
<path d="M0.5 57V104.5C0.5 106.157 1.84315 107.5 3.5 107.5H187C188.657 107.5 190 108.843 190 110.5V260C190 261.657 191.343 263 193 263H352C353.657 263 355 261.657 355 260V81.5C355 79.8431 356.343 78.5 358 78.5H524.5C526.157 78.5 527.5 79.8431 527.5 81.5V160C527.5 161.657 526.157 163 524.5 163H321.5C319.843 163 318.5 161.657 318.5 160V4C318.5 2.34314 317.157 1 315.5 1H229.5H121.5C119.843 1 118.5 2.34315 118.5 4V88.5V209C118.5 210.657 117.157 212 115.5 212H42.5" stroke="#F0F0F0"/>
</svg>
