<svg width="629" height="263" viewBox="0 0 629 263" fill="none" xmlns="http://www.w3.org/2000/svg">
<path d="M0.25 87.4648H379.75C381.407 87.4648 382.75 88.808 382.75 90.4648V206.465C382.75 208.122 384.093 209.465 385.75 209.465H452.25C453.907 209.465 455.25 208.122 455.25 206.465V61.4648C455.25 59.808 456.593 58.4648 458.25 58.4648H624.75C626.407 58.4648 627.75 59.808 627.75 61.4648V139.965C627.75 141.622 626.407 142.965 624.75 142.965H421.75C420.093 142.965 418.75 141.622 418.75 139.965V3.96484C418.75 2.30799 417.407 0.964844 415.75 0.964844H329.75H221.75C220.093 0.964844 218.75 2.30799 218.75 3.96484V68.4648V258.965C218.75 260.622 217.407 261.965 215.75 261.965H182.75" stroke="#F0F0F0"/>
</svg>
