<svg width="629" height="410" viewBox="0 0 629 410" fill="none" xmlns="http://www.w3.org/2000/svg">
<path d="M628.5 282.5H249C247.343 282.5 246 281.157 246 279.5V3.5C246 1.84315 244.657 0.5 243 0.5H176.5C174.843 0.5 173.5 1.84315 173.5 3.5V328.5C173.5 330.157 172.157 331.5 170.5 331.5H4C2.34315 331.5 1 330.157 1 328.5V230C1 228.343 2.34315 227 4 227H207C208.657 227 210 228.343 210 230V406C210 407.657 211.343 409 213 409H299H407C408.657 409 410 407.657 410 406V301.5V211C410 209.343 411.343 208 413 208H446" stroke="#EDEDED"/>
</svg>
