<svg version="1.0" xmlns="http://www.w3.org/2000/svg"
 width="800pt" height="450pt" viewBox="0 0 8000 4500">

<g transform="translate(0.000000,4500.000000) scale(0.100000,-0.100000)"
fill="#a5a7aa" stroke="none">
<path d="M15665 28298 c-111 -11 -300 -49 -419 -83 -833 -242 -1471 -899
-1692 -1745 -44 -170 -65 -324 -71 -525 -6 -206 44 -8561 53 -8992 l6 -263
1864 0 1864 0 0 4073 c0 2699 4 4102 10 4162 30 266 142 498 330 685 195 195
432 306 713 331 71 6 544 9 1277 6 1293 -4 1210 1 1402 -71 125 -47 237 -118
343 -218 163 -154 254 -312 313 -547 15 -61 16 -382 19 -4243 l3 -4178 1890 0
1890 0 0 4633 c0 3191 -3 4668 -11 4743 -104 1078 -907 1973 -1966 2193 -259
54 -62 51 -4043 50 -2118 -1 -3723 -6 -3775 -11z"/>
<path d="M28767 28295 c-1167 -142 -2070 -1082 -2156 -2245 -4 -58 5 -2044 20
-4415 16 -2370 29 -4453 29 -4627 l0 -318 1870 0 1870 0 2 4148 3 4147 27 97
c59 213 164 393 314 538 166 160 334 251 559 303 88 20 116 21 1255 24 1207 4
1317 1 1464 -36 92 -24 239 -92 322 -149 228 -155 387 -400 439 -675 13 -70
15 -568 15 -4238 l0 -4159 1895 0 1895 0 0 4594 c0 3034 -3 4637 -10 4722 -56
701 -376 1310 -927 1762 -29 24 -108 80 -176 126 -302 201 -618 324 -1012 393
-94 16 -331 18 -3845 19 -3031 2 -3765 -1 -3853 -11z"/>
<path d="M42626 28299 c-901 -87 -1720 -561 -2242 -1299 -276 -389 -458 -841
-537 -1335 l-22 -140 0 -2965 c0 -3279 -5 -3009 61 -3324 126 -595 433 -1164
864 -1596 510 -513 1135 -822 1875 -927 124 -17 267 -18 3090 -18 3244 0 3018
-4 3318 56 637 127 1203 424 1666 874 555 541 882 1194 988 1975 17 128 18
279 18 2910 0 2218 -3 2795 -13 2875 -102 784 -414 1430 -951 1965 -550 548
-1260 879 -2041 950 -141 12 -5940 12 -6074 -1z m4391 -2407 c190 -50 356
-137 495 -256 197 -170 329 -394 391 -661 21 -90 21 -97 25 -2355 3 -2285 1
-2416 -33 -2562 -116 -500 -513 -875 -1019 -963 -133 -23 -2144 -23 -2286 0
-255 42 -494 167 -685 359 -175 176 -292 395 -342 643 -17 83 -18 221 -18
2438 0 2238 1 2354 18 2433 107 485 478 849 953 936 66 12 267 14 1249 12
1169 -2 1170 -2 1252 -24z"/>
<path d="M52923 23603 c2 -4336 4 -4716 19 -4808 28 -166 58 -294 99 -419 300
-914 1090 -1559 2047 -1671 193 -23 1777 -22 1954 1 346 45 670 173 971 384
122 86 372 336 459 459 58 84 6478 10742 6478 10756 0 3 -663 4 -1472 3
l-1473 -3 -2645 -4350 -2645 -4350 -3 4353 -2 4352 -1895 0 -1895 0 3 -4707z"/>
<path d="M67340 28299 c-565 -66 -1092 -367 -1433 -818 -40 -54 -1441 -2371
-3283 -5432 -1767 -2936 -3216 -5343 -3219 -5349 -4 -7 483 -10 1468 -10
l1475 0 2643 4350 c1454 2392 2647 4349 2652 4350 4 0 7 -674 7 -1499 l0
-1498 163 -6 c238 -9 444 -48 647 -124 901 -336 1451 -1259 1314 -2204 -51
-356 -205 -709 -431 -989 -83 -102 -271 -284 -370 -357 -352 -261 -771 -403
-1188 -403 l-135 0 0 -810 0 -810 1890 0 1890 0 -2 4733 -3 4732 -23 124 c-67
355 -187 656 -373 935 -387 582 -963 951 -1674 1073 -89 15 -204 17 -1020 19
-506 1 -954 -2 -995 -7z"/>
<path d="M9435 28280 c-440 -93 -767 -426 -850 -863 -22 -118 -22 -845 1 -955
89 -434 403 -755 839 -855 86 -20 123 -21 934 -24 877 -4 983 -1 1130 37 375
96 674 393 778 775 l28 100 0 445 c0 437 0 447 -24 535 -105 398 -390 685
-791 796 l-85 24 -935 2 c-887 2 -940 1 -1025 -17z"/>
<path d="M8570 20685 l0 -3995 1865 0 1865 0 0 3995 0 3995 -1865 0 -1865 0 0
-3995z"/>
<path d="M67520 22016 c-255 -37 -489 -127 -710 -273 -155 -102 -346 -293
-448 -446 -299 -449 -371 -979 -202 -1488 188 -566 654 -979 1253 -1111 90
-20 129 -23 342 -23 210 1 253 3 341 23 661 144 1162 642 1303 1294 123 567
-61 1173 -477 1569 -243 233 -538 383 -869 444 -121 23 -411 28 -533 11z"/>
</g>
</svg>
