<svg width="320" height="67" viewBox="0 0 320 67" fill="none" xmlns="http://www.w3.org/2000/svg">
<g clip-path="url(#clip0_6_46)">
<path d="M256.54 49.64C257.17 49.03 257.48 48.1 257.48 46.84C257.48 44.14 256.85 41.73 255.59 39.62C254.33 37.51 252.59 35.84 250.36 34.63C248.13 33.42 245.56 32.81 242.63 32.81C240.47 32.81 238.43 33.16 236.52 33.86C234.61 34.56 232.92 35.6 231.46 37C230 38.4 228.85 40.13 228.02 42.2C227.19 44.27 226.77 46.68 226.77 49.42C226.77 53.2 227.51 56.37 229 58.94C230.48 61.5 232.57 63.43 235.24 64.71C237.92 65.99 240.99 66.63 244.45 66.63C246.7 66.63 248.69 66.4 250.42 65.96C252.15 65.51 253.53 64.87 254.57 64.04C255.6 63.21 256.12 62.23 256.12 61.1C256.12 60.38 255.93 59.72 255.55 59.11C255.17 58.5 254.68 58.02 254.1 57.66C253.11 58.33 251.82 58.95 250.22 59.52C248.62 60.08 246.88 60.36 244.99 60.36C242.16 60.36 239.82 59.66 237.97 58.27C236.12 56.88 235 54.72 234.6 51.79L234.54 50.78H253.9C255.03 50.62 255.91 50.25 256.54 49.64ZM234.73 45.47C235.1 43.83 235.79 42.49 236.8 41.44C238.35 39.82 240.3 39.01 242.64 39.01C244.98 39.01 246.62 39.65 247.84 40.93C249.05 42.21 249.73 43.73 249.86 45.49L234.73 45.47ZM82.12 28.92C81.22 28.02 80.77 26.94 80.77 25.68C80.77 24.42 81.22 23.28 82.12 22.41C83.02 21.53 84.14 21.09 85.49 21.09C86.93 21.09 88.08 21.53 88.93 22.41C89.78 23.29 90.21 24.38 90.21 25.68C90.21 26.98 89.78 28.02 88.93 28.92C88.07 29.82 86.93 30.27 85.49 30.27C84.14 30.27 83.02 29.82 82.12 28.92ZM89.58 37.32V65.53C89.22 65.66 88.71 65.79 88.06 65.9C87.41 66.01 86.68 66.07 85.87 66.07C84.39 66.07 83.27 65.8 82.53 65.26C81.79 64.72 81.42 63.75 81.42 62.36V34.02C81.78 33.93 82.3 33.83 82.97 33.72C83.64 33.61 84.36 33.55 85.13 33.55C86.66 33.55 87.78 33.82 88.5 34.36C89.22 34.89 89.58 35.88 89.58 37.32ZM121.95 44.81V65.52C121.59 65.65 121.07 65.78 120.4 65.89C119.73 66 119 66.06 118.24 66.06C116.71 66.06 115.58 65.79 114.87 65.25C114.15 64.71 113.79 63.74 113.79 62.35V45.16C113.79 43.14 113.22 41.65 112.07 40.71C110.92 39.77 109.38 39.29 107.45 39.29C106.05 39.29 104.79 39.47 103.67 39.83C102.54 40.19 101.55 40.62 100.7 41.11V65.53C100.34 65.66 99.83 65.79 99.18 65.9C98.53 66.01 97.82 66.07 97.05 66.07C95.52 66.07 94.39 65.8 93.68 65.26C92.96 64.72 92.6 63.75 92.6 62.36V40.57C92.6 39.49 92.81 38.61 93.24 37.94C93.67 37.27 94.35 36.61 95.3 35.98C96.6 35.13 98.33 34.38 100.46 33.75C102.6 33.12 104.95 32.81 107.51 32.81C112.05 32.81 115.6 33.82 118.14 35.85C120.68 37.86 121.95 40.85 121.95 44.81ZM143.52 60.37C143.79 60.89 143.92 61.48 143.92 62.16C143.92 63.42 143.31 64.48 142.1 65.33C140.89 66.18 138.97 66.61 136.36 66.61C132.85 66.61 130.07 65.82 128.03 64.25C125.98 62.68 124.96 60.09 124.96 56.49V25.38C125.32 25.25 125.84 25.11 126.51 24.98C127.18 24.84 127.9 24.78 128.67 24.78C130.15 24.78 131.26 25.06 131.98 25.62C132.7 26.18 133.06 27.16 133.06 28.56V33.55H143.12C143.3 33.82 143.48 34.25 143.66 34.83C143.84 35.42 143.93 36.02 143.93 36.65C143.93 37.78 143.68 38.6 143.19 39.11C142.69 39.63 142 39.89 141.1 39.89H133.07V55.95C133.07 57.43 133.52 58.49 134.42 59.12C135.32 59.75 136.56 60.06 138.13 60.06C138.85 60.06 139.64 59.96 140.49 59.76C141.34 59.56 142.06 59.32 142.65 59.05C142.96 59.42 143.25 59.85 143.52 60.37ZM176.7 49.64C177.33 49.03 177.64 48.1 177.64 46.84C177.64 44.14 177.01 41.73 175.75 39.62C174.49 37.51 172.75 35.84 170.52 34.63C168.29 33.42 165.72 32.81 162.79 32.81C160.63 32.81 158.59 33.16 156.68 33.86C154.77 34.56 153.08 35.6 151.62 37C150.16 38.4 149.01 40.13 148.18 42.2C147.35 44.27 146.93 46.68 146.93 49.42C146.93 53.2 147.67 56.37 149.16 58.94C150.64 61.5 152.73 63.43 155.4 64.71C158.08 65.99 161.15 66.63 164.61 66.63C166.86 66.63 168.85 66.4 170.58 65.96C172.31 65.51 173.69 64.87 174.73 64.04C175.76 63.21 176.28 62.23 176.28 61.1C176.28 60.38 176.09 59.72 175.71 59.11C175.33 58.5 174.84 58.02 174.26 57.66C173.27 58.33 171.98 58.95 170.38 59.52C168.78 60.08 167.04 60.36 165.15 60.36C162.32 60.36 159.98 59.66 158.13 58.27C156.28 56.88 155.16 54.72 154.76 51.79L154.7 50.78H174.06C175.2 50.62 176.07 50.25 176.7 49.64ZM154.9 45.47C155.27 43.83 155.96 42.49 156.97 41.44C158.52 39.82 160.47 39.01 162.81 39.01C165.15 39.01 166.79 39.65 168.01 40.93C169.22 42.21 169.9 43.73 170.03 45.49L154.9 45.47ZM201.79 36.65C201.79 37.28 201.7 37.85 201.52 38.37C201.34 38.89 201.12 39.35 200.85 39.75C200.4 39.66 199.84 39.57 199.16 39.48C198.49 39.39 197.79 39.34 197.07 39.34C195.41 39.34 193.85 39.52 192.41 39.88C190.97 40.24 189.75 40.71 188.77 41.3V65.52C188.41 65.65 187.9 65.78 187.25 65.89C186.6 66 185.89 66.06 185.12 66.06C183.59 66.06 182.46 65.79 181.75 65.25C181.03 64.71 180.67 63.74 180.67 62.35V40.7C180.67 39.58 180.93 38.63 181.45 37.87C181.97 37.11 182.72 36.39 183.71 35.71C185.06 34.86 186.77 34.17 188.84 33.65C190.91 33.13 193.14 32.87 195.52 32.87C199.69 32.87 201.79 34.13 201.79 36.65ZM223.36 60.37C223.63 60.89 223.76 61.48 223.76 62.16C223.76 63.42 223.15 64.48 221.94 65.33C220.73 66.18 218.81 66.61 216.2 66.61C212.69 66.61 209.91 65.82 207.87 64.25C205.82 62.68 204.8 60.09 204.8 56.49V25.38C205.16 25.24 205.68 25.11 206.35 24.98C207.02 24.85 207.74 24.78 208.51 24.78C209.99 24.78 211.1 25.06 211.82 25.62C212.54 26.18 212.9 27.16 212.9 28.56V33.55H222.96C223.14 33.82 223.32 34.25 223.5 34.83C223.68 35.42 223.77 36.02 223.77 36.65C223.77 37.78 223.52 38.6 223.03 39.11C222.53 39.63 221.84 39.89 220.94 39.89H212.91V55.95C212.91 57.43 213.36 58.49 214.26 59.12C215.16 59.75 216.4 60.06 217.97 60.06C218.69 60.06 219.48 59.96 220.33 59.76C221.18 59.56 221.9 59.32 222.49 59.05C222.8 59.41 223.09 59.85 223.36 60.37ZM287.7 61.41C287.7 62.94 286.79 64.19 284.97 65.16C283.15 66.13 280.73 66.61 277.72 66.61C274.3 66.61 271.3 65.99 268.71 64.75C266.12 63.51 264.11 61.64 262.67 59.12C261.23 56.6 260.51 53.5 260.51 49.81C260.51 46.12 261.27 42.88 262.8 40.36C264.33 37.84 266.39 35.95 268.97 34.69C271.56 33.43 274.38 32.8 277.44 32.8C280.5 32.8 282.81 33.33 284.63 34.39C286.45 35.45 287.36 36.72 287.36 38.2C287.36 38.87 287.18 39.49 286.82 40.06C286.46 40.62 286.01 41.08 285.47 41.44C284.61 40.9 283.61 40.42 282.47 39.99C281.32 39.56 279.96 39.35 278.39 39.35C275.69 39.35 273.41 40.25 271.54 42.05C269.67 43.85 268.74 46.44 268.74 49.81C268.74 53.18 269.64 55.74 271.44 57.47C273.24 59.2 275.53 60.07 278.32 60.07C279.98 60.07 281.4 59.86 282.57 59.43C283.74 59 284.75 58.52 285.61 57.98C286.28 58.43 286.8 58.92 287.16 59.46C287.52 60 287.7 60.65 287.7 61.41ZM320 45.56V65.54C319.68 65.67 319.19 65.8 318.52 65.91C317.85 66.02 317.12 66.08 316.36 66.08C314.78 66.08 313.65 65.81 312.95 65.27C312.25 64.73 311.9 63.76 311.9 62.37V45.95C311.9 43.61 311.27 41.91 310.01 40.85C308.75 39.79 307.18 39.26 305.29 39.26C303.71 39.26 302.28 39.56 300.97 40.17C300.17 40.54 299.46 40.94 298.81 41.37V65.51C298.45 65.64 297.94 65.77 297.29 65.88C296.64 65.99 295.93 66.05 295.16 66.05C293.63 66.05 292.5 65.78 291.79 65.24C291.07 64.7 290.71 63.73 290.71 62.34V21.63C291.02 21.54 291.52 21.43 292.19 21.29C292.86 21.16 293.61 21.09 294.42 21.09C295.95 21.09 297.06 21.37 297.76 21.93C298.46 22.49 298.81 23.47 298.81 24.87V34.75C299.5 34.41 300.28 34.07 301.14 33.74C302.78 33.11 304.62 32.8 306.64 32.8C310.69 32.8 313.93 33.86 316.36 35.97C318.79 38.09 320 41.28 320 45.56Z" fill="url(#paint0_linear_6_46)"/>
<path d="M21.11 0.979994V17.04C9.45 17.04 0 26.49 0 38.16V21.09C0 9.79999 8.86 0.589994 20 0.00999381C20.04 0.00999381 20.08 0.00999381 20.12 0.00999381C20.66 -6.18972e-06 21.1 0.439994 21.11 0.979994Z" fill="url(#paint1_linear_6_46)"/>
<path d="M21.11 22.11V52.77C21.11 55.11 20.49 57.31 19.42 59.21C18.65 60.57 17.65 61.77 16.46 62.77C14.19 64.69 11.25 65.84 8.04 65.84C5.2 65.84 2.58 64.94 0.44 63.4C0.42 63.4 0.41 63.38 0.39 63.37C0.16 63.18 0 62.89 0 62.56V42.19C0 41.51 0.03 40.84 0.1 40.17C1.08 29.83 9.52 21.66 19.98 21.1C20.03 21.1 20.09 21.09 20.14 21.09C20.68 21.12 21.11 21.56 21.11 22.11Z" fill="url(#paint2_linear_6_46)"/>
<path d="M68.36 21.08H48.26V0.98C48.25 0.44 47.81 0 47.25 0C47.21 0.01 47.17 0.01 47.13 0.01C42.4 0.26 38.08 2.06 34.68 4.92C30.82 8.17 28.14 12.77 27.37 17.99C27.22 19 27.14 20.03 27.14 21.08V62.56C27.14 62.89 27.3 63.18 27.54 63.36C27.56 63.37 27.57 63.38 27.59 63.39C29.73 64.93 32.35 65.83 35.19 65.83C42.41 65.83 48.26 59.98 48.26 52.76V42.19H49.04C51.35 42.11 53.57 41.65 55.64 40.88C63.34 38.01 68.91 30.77 69.35 22.18V22.08C69.35 21.53 68.9 21.08 68.36 21.08Z" fill="url(#paint3_linear_6_46)"/>
<path d="M69.37 22.08V22.18C68.93 30.77 63.36 38.01 55.66 40.88C53.59 41.65 51.37 42.11 49.06 42.19H48.27V21.08H68.38C68.92 21.08 69.37 21.53 69.37 22.08Z" fill="url(#paint4_linear_6_46)"/>
<path d="M48.28 0.98V52.76C48.28 59.98 42.43 65.83 35.21 65.83C32.37 65.83 29.75 64.93 27.61 63.39C27.59 63.39 27.58 63.37 27.56 63.36C27.32 63.18 27.16 62.89 27.16 62.56V21.08C27.16 20.03 27.24 19 27.39 17.99C28.16 12.77 30.84 8.17 34.7 4.92C38.1 2.06 42.42 0.26 47.15 0C47.19 0 47.23 0 47.27 0C47.83 0 48.27 0.44 48.28 0.98Z" fill="url(#paint5_linear_6_46)"/>
</g>
<defs>
<linearGradient id="paint0_linear_6_46" x1="80.77" y1="43.86" x2="320" y2="43.86" gradientUnits="userSpaceOnUse">
<stop stop-color="#a5a7aa"/>
<stop offset="0.33" stop-color="#a5a7aa"/>
<stop offset="1" stop-color="#a5a7aa"/>
</linearGradient>
<linearGradient id="paint1_linear_6_46" x1="10.56" y1="38.16" x2="10.56" y2="-6.06016e-06" gradientUnits="userSpaceOnUse">
<stop stop-color="#a5a7aa"/>
<stop offset="0.67" stop-color="#a5a7aa"/>
<stop offset="1" stop-color="#a5a7aa"/>
</linearGradient>
<linearGradient id="paint2_linear_6_46" x1="10.56" y1="65.84" x2="10.56" y2="21.09" gradientUnits="userSpaceOnUse">
<stop stop-color="#a5a7aa"/>
<stop offset="0.67" stop-color="#a5a7aa"/>
<stop offset="1" stop-color="#a5a7aa"/>
</linearGradient>
<linearGradient id="paint3_linear_6_46" x1="48.24" y1="0" x2="48.24" y2="65.83" gradientUnits="userSpaceOnUse">
<stop stop-color="#a5a7aa"/>
<stop offset="0.67" stop-color="#a5a7aa"/>
<stop offset="1" stop-color="#a5a7aa"/>
</linearGradient>
<linearGradient id="paint4_linear_6_46" x1="48.27" y1="31.63" x2="69.37" y2="31.63" gradientUnits="userSpaceOnUse">
<stop stop-color="#a5a7aa"/>
<stop offset="0.33" stop-color="#a5a7aa"/>
<stop offset="1" stop-color="#a5a7aa"/>
</linearGradient>
<linearGradient id="paint5_linear_6_46" x1="37.72" y1="65.83" x2="37.72" y2="0" gradientUnits="userSpaceOnUse">
<stop stop-color="#a5a7aa"/>
<stop offset="0.67" stop-color="#a5a7aa"/>
<stop offset="1" stop-color="#a5a7aa"/>
</linearGradient>
<clipPath id="clip0_6_46">
<rect width="320" height="66.63" fill="white"/>
</clipPath>
</defs>
</svg>
