<svg width="737" height="145" viewBox="0 0 737 145" fill="none" xmlns="http://www.w3.org/2000/svg">
<path d="M75.9991 79.7302L54.869 66.2602C54.3391 65.9202 53.7191 65.7402 53.0991 65.7402H44.9791C38.9691 65.7402 36.6891 73.5902 41.7591 76.8102L54.8391 85.1102C56.189 85.9702 55.5791 88.0602 53.9791 88.0602L6.02907 88.1302C2.71907 88.1302 0.0390625 90.8202 0.0390625 94.1302V96.1202C0.0390625 101.09 4.06906 105.12 9.03906 105.12H69.7891C74.7591 105.12 78.7891 101.09 78.7891 96.1202V84.7902C78.7891 82.7402 77.7391 80.8302 76.0091 79.7302H75.9991Z" fill="#a5a7aa"/>
<path d="M2.78 51.6703L23.91 65.1403C24.44 65.4803 25.06 65.6603 25.68 65.6603H33.8C39.81 65.6603 42.09 57.8103 37.02 54.5903L23.94 46.2903C22.59 45.4303 23.2 43.3403 24.8 43.3403H72.75C76.06 43.3403 78.75 40.6503 78.75 37.3403V35.2803C78.75 30.3103 74.72 26.2803 69.75 26.2803H9C4.03 26.2803 0 30.3103 0 35.2803V46.6103C0 48.6603 1.05 50.5703 2.78 51.6703Z" fill="#a5a7aa"/>
<path d="M260.761 26.2803H225.361C222.161 26.2803 219.091 27.5603 216.831 29.8403L213.011 33.7003C211.061 35.6703 207.711 34.2903 207.711 31.5203V29.4903C207.711 27.7203 206.281 26.2903 204.511 26.2903H193.661C191.891 26.2903 190.461 27.7203 190.461 29.4903V101.93C190.461 103.7 191.891 105.13 193.661 105.13H204.511C206.281 105.13 207.711 103.7 207.711 101.93V46.5703C207.711 44.8003 209.141 43.3703 210.911 43.3703H248.861C250.631 43.3703 252.061 44.8003 252.061 46.5703V101.93C252.061 103.7 253.491 105.13 255.261 105.13H266.111C267.881 105.13 269.311 103.7 269.311 101.93V34.8203C269.311 30.1003 265.491 26.2803 260.771 26.2803H260.761Z" fill="#a5a7aa"/>
<path d="M504.659 26.2803H469.259C466.059 26.2803 462.989 27.5603 460.729 29.8403L456.909 33.7003C454.959 35.6703 451.609 34.2903 451.609 31.5203V29.4903C451.609 27.7203 450.179 26.2903 448.409 26.2903H437.559C435.789 26.2903 434.359 27.7203 434.359 29.4903V101.93C434.359 103.7 435.789 105.13 437.559 105.13H448.409C450.179 105.13 451.609 103.7 451.609 101.93V46.5703C451.609 44.8003 453.039 43.3703 454.809 43.3703H492.759C494.529 43.3703 495.959 44.8003 495.959 46.5703V101.93C495.959 103.7 497.389 105.13 499.159 105.13H510.009C511.779 105.13 513.209 103.7 513.209 101.93V34.8203C513.209 30.1003 509.389 26.2803 504.669 26.2803H504.659Z" fill="#a5a7aa"/>
<path d="M728.201 26.2803H707.091C703.891 26.2803 700.821 27.5603 698.561 29.8403L694.741 33.7003C692.791 35.6703 689.441 34.2903 689.441 31.5203V29.4903C689.441 27.7203 688.011 26.2903 686.241 26.2903H659.791C656.591 26.2903 653.521 27.5703 651.261 29.8503L647.441 33.7103C645.491 35.6803 642.141 34.3003 642.141 31.5303V29.5003C642.141 27.7303 640.711 26.3003 638.941 26.3003H628.091C626.321 26.3003 624.891 27.7303 624.891 29.5003V101.94C624.891 103.71 626.321 105.14 628.091 105.14H638.941C640.711 105.14 642.141 103.71 642.141 101.94V46.5803C642.141 44.8103 643.571 43.3803 645.341 43.3803H669.001C670.771 43.3803 672.201 44.8103 672.201 46.5803V101.94C672.201 103.71 673.631 105.14 675.401 105.14H686.251C688.021 105.14 689.451 103.71 689.451 101.94V46.5803C689.451 44.8103 690.881 43.3803 692.651 43.3803H716.311C718.081 43.3803 719.511 44.8103 719.511 46.5803V101.94C719.511 103.71 720.941 105.14 722.711 105.14H733.561C735.331 105.14 736.761 103.71 736.761 101.94V34.8203C736.761 30.1003 732.941 26.2803 728.221 26.2803H728.201Z" fill="#a5a7aa"/>
<path d="M328.511 26.28H319.631C316.431 26.28 313.361 27.56 311.101 29.84L308.431 32.53C306.421 34.56 302.961 33.14 302.961 30.28V3.2C302.961 1.43 301.531 0 299.761 0H288.911C287.141 0 285.711 1.43 285.711 3.2V101.92C285.711 103.69 287.141 105.12 288.911 105.12H299.761C301.531 105.12 302.961 103.69 302.961 101.92V46.56C302.961 44.79 304.391 43.36 306.161 43.36H328.501C330.271 43.36 331.701 41.93 331.701 40.16V29.48C331.701 27.71 330.271 26.28 328.501 26.28H328.511Z" fill="#a5a7aa"/>
<path d="M339.1 96.42V34.83C339.1 30.11 342.92 26.29 347.64 26.29H409.4C414.12 26.29 417.94 30.11 417.94 34.83V96.59C417.94 101.31 414.12 105.13 409.4 105.13H347.64C342.92 105.13 339.1 101.31 339.1 96.59V96.43V96.42ZM356.35 46.57V84.85C356.35 86.62 357.78 88.05 359.55 88.05H397.5C399.27 88.05 400.7 86.62 400.7 84.85V46.57C400.7 44.8 399.27 43.37 397.5 43.37H359.55C357.78 43.37 356.35 44.8 356.35 46.57Z" fill="#a5a7aa"/>
<path d="M170.839 26.2803H159.989C158.219 26.2803 156.789 27.7103 156.789 29.4803V84.8403C156.789 86.6103 155.359 88.0403 153.589 88.0403H115.639C113.869 88.0403 112.439 86.6103 112.439 84.8403V29.4803C112.439 27.7103 111.009 26.2803 109.239 26.2803H98.3895C96.6195 26.2803 95.1895 27.7103 95.1895 29.4803V96.4903C95.1895 101.22 98.9995 105.07 103.729 105.12H136.629C141.429 105.12 146.039 103.2 149.419 99.7903L151.309 97.8803C153.319 95.8503 156.779 97.2703 156.779 100.13V124.26C156.779 126.03 155.349 127.46 153.579 127.46L101.179 127.51C97.8695 127.51 95.1895 130.2 95.1895 133.51V135.12C95.1895 139.86 98.9995 144.47 103.719 144.55H151.879H165.489C170.209 144.55 174.029 140.73 174.029 136.01V29.4803C174.029 27.7103 172.599 26.2803 170.829 26.2803H170.839Z" fill="#a5a7aa"/>
<path d="M605.259 26.2803H594.409C592.639 26.2803 591.209 27.7103 591.209 29.4803V84.8403C591.209 86.6103 589.779 88.0403 588.009 88.0403H550.059C548.289 88.0403 546.859 86.6103 546.859 84.8403V29.4803C546.859 27.7103 545.429 26.2803 543.659 26.2803H532.809C531.039 26.2803 529.609 27.7103 529.609 29.4803V96.4903C529.609 101.22 533.419 105.07 538.149 105.12H571.049C575.849 105.12 580.459 103.2 583.839 99.7903L585.729 97.8803C587.739 95.8503 591.199 97.2703 591.199 100.13V124.26C591.199 126.03 589.769 127.46 587.999 127.46L535.599 127.51C532.289 127.51 529.609 130.2 529.609 133.51V135.12C529.609 139.86 533.419 144.47 538.139 144.55H586.299H599.909C604.629 144.55 608.449 140.73 608.449 136.01V29.4803C608.449 27.7103 607.019 26.2803 605.249 26.2803H605.259Z" fill="#a5a7aa"/>
</svg>
